<svg width="484" height="108" viewBox="0 0 484 108" fill="none" xmlns="http://www.w3.org/2000/svg">
<path d="M0.64 2.176H35.632C45.424 2.176 54.4 4.096 62.56 7.93599C70.72 11.776 77.248 17.584 82.144 25.36C87.04 33.136 89.488 42.688 89.488 54.016C89.488 65.44 87.04 75.04 82.144 82.816C77.248 90.592 70.72 96.4 62.56 100.24C54.4 104.08 45.424 106 35.632 106H0.64V2.176ZM33.472 86.416C39.52 86.416 44.992 85.36 49.888 83.248C54.88 81.136 58.912 77.68 61.984 72.88C65.056 67.984 66.592 61.696 66.592 54.016C66.592 46.432 65.056 40.24 61.984 35.44C58.912 30.544 54.88 27.04 49.888 24.928C44.992 22.816 39.52 21.76 33.472 21.76H22.96V86.416H33.472ZM96.5519 2.176H167.256V21.616H118.872V41.488H157.32V60.928H118.872V86.56H168.84V106H96.5519V2.176ZM211.304 107.008C203.432 107.008 196.376 105.52 190.136 102.544C183.992 99.472 179.096 95.152 175.448 89.584C171.896 83.92 169.928 77.344 169.544 69.856H191.432C191.624 73.216 192.632 76.24 194.456 78.928C196.28 81.52 198.68 83.632 201.656 85.264C204.632 86.8 207.848 87.568 211.304 87.568C214.472 87.568 217.256 87.088 219.656 86.128C222.056 85.168 223.928 83.872 225.272 82.24C226.616 80.512 227.288 78.544 227.288 76.336C227.288 73.552 226.28 71.248 224.264 69.424C222.344 67.6 219.656 66.16 216.2 65.104L200.648 60.784C192.104 58.48 185.432 54.976 180.632 50.272C175.832 45.568 173.432 38.8 173.432 29.968C173.432 24.4 175.016 19.408 178.184 14.992C181.352 10.576 185.672 7.11999 191.144 4.62399C196.712 2.128 203.048 0.879997 210.152 0.879997C217.64 0.879997 224.264 2.176 230.024 4.768C235.88 7.35999 240.488 11.104 243.848 16C247.208 20.8 249.08 26.416 249.464 32.848H227.576C227 29.488 225.128 26.608 221.96 24.208C218.888 21.712 214.952 20.464 210.152 20.464C205.832 20.464 202.424 21.28 199.928 22.912C197.528 24.544 196.328 26.848 196.328 29.824C196.328 32.32 197.192 34.336 198.92 35.872C200.648 37.312 203.144 38.512 206.408 39.472L222.104 43.792C227.864 45.424 232.712 47.44 236.648 49.84C240.68 52.144 243.896 55.408 246.296 59.632C248.792 63.76 250.04 69.136 250.04 75.76C250.04 81.904 248.408 87.376 245.144 92.176C241.976 96.88 237.464 100.528 231.608 103.12C225.848 105.712 219.08 107.008 211.304 107.008ZM257.298 2.176H279.618V106H257.298V2.176ZM260.61 86.56H276.45V106H260.61V86.56ZM260.61 2.176H276.45V21.616H260.61V2.176ZM337.994 107.152C328.394 107.152 319.706 105.184 311.93 101.248C304.25 97.216 298.154 91.216 293.642 83.248C289.13 75.28 286.874 65.536 286.874 54.016C286.874 43.648 289.13 34.432 293.642 26.368C298.154 18.304 304.346 12.064 312.218 7.648C320.09 3.232 328.874 1.024 338.57 1.024C347.114 1.024 354.794 2.56 361.61 5.632C368.522 8.608 374.186 12.976 378.602 18.736C383.018 24.496 385.802 31.456 386.954 39.616H362.33C361.178 33.952 358.394 29.344 353.978 25.792C349.562 22.24 344.33 20.464 338.282 20.464C332.81 20.464 327.914 21.904 323.594 24.784C319.274 27.568 315.866 31.504 313.37 36.592C310.874 41.68 309.626 47.488 309.626 54.016C309.626 60.736 310.874 66.688 313.37 71.872C315.962 76.96 319.514 80.896 324.026 83.68C328.634 86.368 333.914 87.712 339.866 87.712C344.474 87.712 348.554 86.896 352.106 85.264C355.754 83.536 358.634 81.232 360.746 78.352C362.858 75.472 364.154 72.208 364.634 68.56H336.266V50.56H386.09V106H365.354V94.48C363.05 98.224 359.402 101.296 354.41 103.696C349.418 106 343.946 107.152 337.994 107.152ZM396.246 2.176H420.006L450.102 51.856C454.518 59.152 458.406 66.064 461.766 72.592C461.382 65.104 461.19 57.136 461.19 48.688V2.176H483.366V106H459.606L429.654 56.608C425.238 49.312 421.35 42.4 417.99 35.872C418.374 43.264 418.566 51.184 418.566 59.632V106H396.246V2.176Z" fill="#171717"/>
</svg>
