<svg width="659" height="107" viewBox="0 0 659 107" fill="none" xmlns="http://www.w3.org/2000/svg">
<path d="M0.64 1.176H71.344V20.616H22.96V40.488H61.408V59.928H22.96V85.56H72.928V105H0.64V1.176ZM79.5362 1.176H103.296L133.392 50.856C137.808 58.152 141.696 65.064 145.056 71.592C144.672 64.104 144.48 56.136 144.48 47.688V1.176H166.656V105H142.896L112.944 55.608C108.528 48.312 104.64 41.4 101.28 34.872C101.664 42.264 101.856 50.184 101.856 58.632V105H79.5362V1.176ZM225.061 106.152C215.461 106.152 206.773 104.184 198.997 100.248C191.317 96.216 185.221 90.216 180.709 82.248C176.197 74.28 173.941 64.536 173.941 53.016C173.941 42.648 176.197 33.432 180.709 25.368C185.221 17.304 191.413 11.064 199.285 6.648C207.157 2.232 215.941 0.0239954 225.637 0.0239954C234.181 0.0239954 241.861 1.56 248.677 4.632C255.589 7.608 261.253 11.976 265.669 17.736C270.085 23.496 272.869 30.456 274.021 38.616H249.397C248.245 32.952 245.461 28.344 241.045 24.792C236.629 21.24 231.397 19.464 225.349 19.464C219.877 19.464 214.981 20.904 210.661 23.784C206.341 26.568 202.933 30.504 200.437 35.592C197.941 40.68 196.693 46.488 196.693 53.016C196.693 59.736 197.941 65.688 200.437 70.872C203.029 75.96 206.581 79.896 211.093 82.68C215.701 85.368 220.981 86.712 226.933 86.712C231.541 86.712 235.621 85.896 239.173 84.264C242.821 82.536 245.701 80.232 247.813 77.352C249.925 74.472 251.221 71.208 251.701 67.56H223.333V49.56H273.157V105H252.421V93.48C250.117 97.224 246.469 100.296 241.477 102.696C236.485 105 231.013 106.152 225.061 106.152ZM283.313 1.176H305.633V105H283.313V1.176ZM286.625 85.56H302.465V105H286.625V85.56ZM286.625 1.176H302.465V20.616H286.625V1.176ZM317.209 1.176H340.969L371.065 50.856C375.481 58.152 379.369 65.064 382.729 71.592C382.345 64.104 382.153 56.136 382.153 47.688V1.176H404.329V105H380.569L350.617 55.608C346.201 48.312 342.313 41.4 338.953 34.872C339.337 42.264 339.529 50.184 339.529 58.632V105H317.209V1.176ZM415.934 1.176H486.638V20.616H438.254V40.488H476.702V59.928H438.254V85.56H488.222V105H415.934V1.176ZM494.83 1.176H565.534V20.616H517.15V40.488H555.598V59.928H517.15V85.56H567.118V105H494.83V1.176ZM573.726 1.176H619.806C626.622 1.176 632.574 2.472 637.662 5.064C642.846 7.65599 646.83 11.352 649.614 16.152C652.398 20.952 653.79 26.568 653.79 33C653.79 36.552 653.166 40.008 651.918 43.368C650.766 46.728 649.038 49.8 646.734 52.584C644.526 55.272 641.886 57.528 638.814 59.352C642.078 61.08 644.622 63.336 646.446 66.12C648.366 68.808 649.758 72.216 650.622 76.344L654.078 92.184C654.174 92.664 654.27 93.096 654.366 93.48C654.942 95.784 655.566 97.992 656.238 100.104C657.006 102.12 657.774 103.752 658.542 105H634.062C633.486 103.944 632.91 102.6 632.334 100.968C631.758 99.24 631.326 97.512 631.038 95.784L628.59 80.664C627.918 76.92 626.766 73.896 625.134 71.592C623.502 69.192 621.15 67.464 618.078 66.408C615.102 65.256 611.31 64.68 606.702 64.68H596.046V105H573.726V1.176ZM616.206 45.096C619.278 45.096 621.918 44.664 624.126 43.8C626.43 42.84 628.158 41.448 629.31 39.624C630.462 37.704 631.038 35.496 631.038 33C631.038 29.16 629.742 26.184 627.15 24.072C624.558 21.864 620.91 20.76 616.206 20.76H596.046V45.096H616.206Z" fill="#171717"/>
</svg>
